<?xml version="1.0" encoding="UTF-8"?>
<svg width="522px" height="612px" viewBox="0 0 522 612" version="1.1" xmlns="http://www.w3.org/2000/svg" xmlns:xlink="http://www.w3.org/1999/xlink">
    <!-- Generator: Sketch 48.2 (47327) - http://www.bohemiancoding.com/sketch -->
    <title>frontal-truck</title>
    <desc>Created with Sketch.</desc>
    <defs></defs>
    <g id="Page-1" stroke="none" stroke-width="1" fill="none" fill-rule="evenodd">
        <g id="frontal-truck" fill="#20BF55" fill-rule="nonzero">
            <path d="M496.322,500.219 L496.322,405.847 C496.322,385.57 479.884,369.131 459.607,369.131 L450.009,369.131 L450.009,24.598 C450.009,21.516 448.462,18.64 445.892,16.941 L422.587,1.537 C416.484,-2.496 408.348,1.879 408.348,9.194 L408.348,119.846 L401.403,101.112 C392.063,75.916 368.03,59.194 341.158,59.194 L180.702,59.194 C153.672,59.194 129.533,76.11 120.308,101.517 L113.653,119.846 L113.653,9.194 C113.653,1.88 105.516,-2.496 99.413,1.537 L76.107,16.94 C73.536,18.639 71.989,21.515 71.989,24.597 L71.989,369.131 L62.392,369.131 C42.115,369.131 25.677,385.569 25.677,405.847 L25.677,500.219 L10.035,500.219 C4.966,500.219 0.857,504.328 0.857,509.398 L0.857,560.141 C0.857,565.21 4.966,569.32 10.035,569.32 L49.633,569.32 L49.633,593.642 C49.633,603.781 57.852,611.999 67.991,611.999 L116.636,611.999 C126.775,611.999 134.994,603.78 134.994,593.642 L134.994,569.32 L387.008,569.32 L387.008,593.642 C387.008,603.781 395.228,611.999 405.365,611.999 L454.011,611.999 C464.15,611.999 472.368,603.78 472.368,593.642 L472.368,569.32 L511.966,569.32 C517.036,569.32 521.145,565.21 521.145,560.141 L521.145,509.399 C521.145,504.329 517.036,500.22 511.966,500.22 L496.322,500.219 Z M125.814,170.975 L396.186,170.975 L396.186,261.415 L125.814,261.415 L125.814,170.975 Z M119.527,474.533 L88.17,474.533 C78.589,474.533 70.822,466.765 70.822,457.184 L70.822,456.746 C70.822,447.165 78.589,439.398 88.17,439.398 L119.526,439.398 C129.107,439.398 136.874,447.165 136.874,456.746 L136.874,457.184 C136.875,466.765 129.108,474.533 119.527,474.533 Z M323.398,479.648 L198.602,479.648 C188.463,479.648 180.244,471.428 180.244,461.291 L180.244,344.976 C180.244,334.838 188.463,326.619 198.602,326.619 L323.398,326.619 C333.536,326.619 341.755,334.839 341.755,344.976 L341.755,461.29 C341.756,471.428 333.536,479.648 323.398,479.648 Z M433.829,474.533 L402.473,474.533 C392.893,474.533 385.125,466.765 385.125,457.184 L385.125,456.746 C385.125,447.165 392.893,439.398 402.473,439.398 L433.829,439.398 C443.41,439.398 451.178,447.165 451.178,456.746 L451.178,457.184 C451.178,466.765 443.41,474.533 433.829,474.533 Z M320.607,393.801 L201.099,393.801 C196.08,393.801 192.012,389.733 192.012,384.713 L192.012,384.529 C192.012,379.51 196.08,375.443 201.099,375.443 L320.607,375.443 C325.626,375.443 329.694,379.51 329.694,384.529 L329.694,384.713 C329.694,389.733 325.626,393.801 320.607,393.801 Z M320.607,357.085 L201.099,357.085 C196.08,357.085 192.012,353.017 192.012,347.998 L192.012,347.814 C192.012,342.796 196.08,338.728 201.099,338.728 L320.607,338.728 C325.626,338.728 329.694,342.796 329.694,347.814 L329.694,347.998 C329.694,353.017 325.626,357.085 320.607,357.085 Z M320.607,467.232 L201.099,467.232 C196.08,467.232 192.012,463.164 192.012,458.145 L192.012,457.961 C192.012,452.942 196.08,448.874 201.099,448.874 L320.607,448.874 C325.626,448.874 329.694,452.942 329.694,457.961 L329.694,458.145 C329.694,463.164 325.626,467.232 320.607,467.232 Z M320.607,430.516 L201.099,430.516 C196.08,430.516 192.012,426.448 192.012,421.43 L192.012,421.246 C192.012,416.227 196.08,412.159 201.099,412.159 L320.607,412.159 C325.626,412.159 329.694,416.227 329.694,421.246 L329.694,421.43 C329.694,426.448 325.626,430.516 320.607,430.516 Z" id="Shape"></path>
        </g>
    </g>
</svg>